# Stunts car Audi Quattro S1 (ANSX)
mtllib cars.mtl
o ansx
usemtl CarWhite
v -205.0 0.0 -104.0
v 205.0 0.0 -104.0
v 205.0 0.0 104.0
v -205.0 0.0 104.0
v -205.0 76.0 -104.0
v 205.0 76.0 -104.0
v 205.0 76.0 104.0
v -205.0 76.0 104.0
v -76.7 41.8 -72.5
v 76.7 41.8 -72.5
v 76.7 41.8 72.5
v -76.7 41.8 72.5
v -76.7 83.6 -72.5
v 76.7 83.6 -72.5
v 76.7 83.6 72.5
v -76.7 83.6 72.5
f 1 2 3 4
f 5 6 7 8
f 1 2 6 5
f 2 3 7 6
f 3 4 8 7
f 4 1 5 8
f 9 10 11 12
f 13 14 15 16
f 9 10 14 13
f 10 11 15 14
f 11 12 16 15
f 12 9 13 16
usemtl CarWheel
v 148.8 34.0 87.4
v 138.8 58.0 87.4
v 114.8 68.0 87.4
v 90.8 58.0 87.4
v 80.8 34.0 87.4
v 90.8 10.0 87.4
v 114.8 0.0 87.4
v 138.8 10.0 87.4
v 114.8 34.0 98.4
v 114.8 34.0 76.4
v 148.8 34.0 -87.4
v 138.8 58.0 -87.4
v 114.8 68.0 -87.4
v 90.8 58.0 -87.4
v 80.8 34.0 -87.4
v 90.8 10.0 -87.4
v 114.8 0.0 -87.4
v 138.8 10.0 -87.4
v 114.8 34.0 -76.4
v 114.8 34.0 -98.4
v -80.8 34.0 87.4
v -90.8 58.0 87.4
v -114.8 68.0 87.4
v -138.8 58.0 87.4
v -148.8 34.0 87.4
v -138.8 10.0 87.4
v -114.8 0.0 87.4
v -90.8 10.0 87.4
v -114.8 34.0 98.4
v -114.8 34.0 76.4
v -80.8 34.0 -87.4
v -90.8 58.0 -87.4
v -114.8 68.0 -87.4
v -138.8 58.0 -87.4
v -148.8 34.0 -87.4
v -138.8 10.0 -87.4
v -114.8 0.0 -87.4
v -90.8 10.0 -87.4
v -114.8 34.0 -76.4
v -114.8 34.0 -98.4
