# Stunts car Audi Quattro (AUDI)
mtllib cars.mtl
o audi
usemtl CarSilver
v -207.5 0.0 -105.0
v 207.5 0.0 -105.0
v 207.5 0.0 105.0
v -207.5 0.0 105.0
v -207.5 76.0 -105.0
v 207.5 76.0 -105.0
v 207.5 76.0 105.0
v -207.5 76.0 105.0
v -77.6 41.8 -73.2
v 77.6 41.8 -73.2
v 77.6 41.8 73.2
v -77.6 41.8 73.2
v -77.6 83.6 -73.2
v 77.6 83.6 -73.2
v 77.6 83.6 73.2
v -77.6 83.6 73.2
f 1 2 3 4
f 5 6 7 8
f 1 2 6 5
f 2 3 7 6
f 3 4 8 7
f 4 1 5 8
f 9 10 11 12
f 13 14 15 16
f 9 10 14 13
f 10 11 15 14
f 11 12 16 15
f 12 9 13 16
usemtl CarWheel
v 116.2 0.0 77.2
v 116.2 0.0 99.2
v 116.2 68.0 99.2
v 116.2 68.0 77.2
v 116.2 0.0 77.2
v 116.2 0.0 99.2
v 116.2 68.0 99.2
v 116.2 68.0 77.2
f 17 18 19 20
f 21 22 23 24
v 116.2 0.0 -99.2
v 116.2 0.0 -77.2
v 116.2 68.0 -77.2
v 116.2 68.0 -99.2
v 116.2 0.0 -99.2
v 116.2 0.0 -77.2
v 116.2 68.0 -77.2
v 116.2 68.0 -99.2
f 25 26 27 28
f 29 30 31 32
v -116.2 0.0 77.2
v -116.2 0.0 99.2
v -116.2 68.0 99.2
v -116.2 68.0 77.2
v -116.2 0.0 77.2
v -116.2 0.0 99.2
v -116.2 68.0 99.2
v -116.2 68.0 77.2
f 33 34 35 36
f 37 38 39 40
v -116.2 0.0 -99.2
v -116.2 0.0 -77.2
v -116.2 68.0 -77.2
v -116.2 68.0 -99.2
v -116.2 0.0 -99.2
v -116.2 0.0 -77.2
v -116.2 68.0 -77.2
v -116.2 68.0 -99.2
f 41 42 43 44
f 45 46 47 48
