# Stunts car Lamborghini Countach (COUN)
mtllib cars.mtl
o coun
usemtl CarYellow
v -215.0 0.0 -105.0
v 64.5 0.0 -105.0
v 64.5 0.0 105.0
v -215.0 0.0 105.0
v -43.0 62.0 -73.5
v 215.0 62.0 -73.5
v 215.0 62.0 73.5
v -43.0 62.0 73.5
v -51.2 34.1 -73.2
v 51.2 34.1 -73.2
v 51.2 34.1 73.2
v -51.2 34.1 73.2
v -51.2 68.2 -73.2
v 51.2 68.2 -73.2
v 51.2 68.2 73.2
v -51.2 68.2 73.2
f 1 2 3 4
f 5 6 7 8
f 1 2 6 5
f 2 3 7 6
f 3 4 8 7
f 4 1 5 8
f 9 10 11 12
f 13 14 15 16
f 9 10 14 13
f 10 11 15 14
f 11 12 16 15
f 12 9 13 16
usemtl CarWheel
v 120.4 0.0 77.2
v 120.4 0.0 99.2
v 120.4 68.0 99.2
v 120.4 68.0 77.2
v 120.4 0.0 77.2
v 120.4 0.0 99.2
v 120.4 68.0 99.2
v 120.4 68.0 77.2
f 17 18 19 20
f 21 22 23 24
v 120.4 0.0 -99.2
v 120.4 0.0 -77.2
v 120.4 68.0 -77.2
v 120.4 68.0 -99.2
v 120.4 0.0 -99.2
v 120.4 0.0 -77.2
v 120.4 68.0 -77.2
v 120.4 68.0 -99.2
f 25 26 27 28
f 29 30 31 32
v -120.4 0.0 77.2
v -120.4 0.0 99.2
v -120.4 68.0 99.2
v -120.4 68.0 77.2
v -120.4 0.0 77.2
v -120.4 0.0 99.2
v -120.4 68.0 99.2
v -120.4 68.0 77.2
f 33 34 35 36
f 37 38 39 40
v -120.4 0.0 -99.2
v -120.4 0.0 -77.2
v -120.4 68.0 -77.2
v -120.4 68.0 -99.2
v -120.4 0.0 -99.2
v -120.4 0.0 -77.2
v -120.4 68.0 -77.2
v -120.4 68.0 -99.2
f 41 42 43 44
f 45 46 47 48
