# Stunts car Ferrari GT (FGTO)
mtllib cars.mtl
o fgto
usemtl CarRed
v -225.0 0.0 -107.5
v 225.0 0.0 -107.5
v 225.0 0.0 107.5
v -225.0 0.0 107.5
v -225.0 70.0 -107.5
v 225.0 70.0 -107.5
v 225.0 70.0 107.5
v -225.0 70.0 107.5
v -72.7 38.5 -74.9
v 72.7 38.5 -74.9
v 72.7 38.5 74.9
v -72.7 38.5 74.9
v -72.7 77.0 -74.9
v 72.7 77.0 -74.9
v 72.7 77.0 74.9
v -72.7 77.0 74.9
f 1 2 3 4
f 5 6 7 8
f 1 2 6 5
f 2 3 7 6
f 3 4 8 7
f 4 1 5 8
f 9 10 11 12
f 13 14 15 16
f 9 10 14 13
f 10 11 15 14
f 11 12 16 15
f 12 9 13 16
usemtl CarWheel
v 160.0 34.0 90.3
v 150.0 58.0 90.3
v 126.0 68.0 90.3
v 102.0 58.0 90.3
v 92.0 34.0 90.3
v 102.0 10.0 90.3
v 126.0 0.0 90.3
v 150.0 10.0 90.3
v 126.0 34.0 101.3
v 126.0 34.0 79.3
v 160.0 34.0 -90.3
v 150.0 58.0 -90.3
v 126.0 68.0 -90.3
v 102.0 58.0 -90.3
v 92.0 34.0 -90.3
v 102.0 10.0 -90.3
v 126.0 0.0 -90.3
v 150.0 10.0 -90.3
v 126.0 34.0 -79.3
v 126.0 34.0 -101.3
v -92.0 34.0 90.3
v -102.0 58.0 90.3
v -126.0 68.0 90.3
v -150.0 58.0 90.3
v -160.0 34.0 90.3
v -150.0 10.0 90.3
v -126.0 0.0 90.3
v -102.0 10.0 90.3
v -126.0 34.0 101.3
v -126.0 34.0 79.3
v -92.0 34.0 -90.3
v -102.0 58.0 -90.3
v -126.0 68.0 -90.3
v -150.0 58.0 -90.3
v -160.0 34.0 -90.3
v -150.0 10.0 -90.3
v -126.0 0.0 -90.3
v -102.0 10.0 -90.3
v -126.0 34.0 -79.3
v -126.0 34.0 -101.3
