# Stunts car Jaguar XJR-12 (JAGU)
mtllib cars.mtl
o jagu
usemtl CarBlue
v -230.0 0.0 -112.5
v 230.0 0.0 -112.5
v 230.0 0.0 112.5
v -230.0 0.0 112.5
v -230.0 72.0 -112.5
v 230.0 72.0 -112.5
v 230.0 72.0 112.5
v -230.0 72.0 112.5
v -68.4 39.6 -78.4
v 68.4 39.6 -78.4
v 68.4 39.6 78.4
v -68.4 39.6 78.4
v -68.4 79.2 -78.4
v 68.4 79.2 -78.4
v 68.4 79.2 78.4
v -68.4 79.2 78.4
f 1 2 3 4
f 5 6 7 8
f 1 2 6 5
f 2 3 7 6
f 3 4 8 7
f 4 1 5 8
f 9 10 11 12
f 13 14 15 16
f 9 10 14 13
f 10 11 15 14
f 11 12 16 15
f 12 9 13 16
usemtl CarWheel
v 162.8 34.0 94.5
v 152.8 58.0 94.5
v 128.8 68.0 94.5
v 104.8 58.0 94.5
v 94.8 34.0 94.5
v 104.8 10.0 94.5
v 128.8 0.0 94.5
v 152.8 10.0 94.5
v 128.8 34.0 105.5
v 128.8 34.0 83.5
v 162.8 34.0 -94.5
v 152.8 58.0 -94.5
v 128.8 68.0 -94.5
v 104.8 58.0 -94.5
v 94.8 34.0 -94.5
v 104.8 10.0 -94.5
v 128.8 0.0 -94.5
v 152.8 10.0 -94.5
v 128.8 34.0 -83.5
v 128.8 34.0 -105.5
v -94.8 34.0 94.5
v -104.8 58.0 94.5
v -128.8 68.0 94.5
v -152.8 58.0 94.5
v -162.8 34.0 94.5
v -152.8 10.0 94.5
v -128.8 0.0 94.5
v -104.8 10.0 94.5
v -128.8 34.0 105.5
v -128.8 34.0 83.5
v -94.8 34.0 -94.5
v -104.8 58.0 -94.5
v -128.8 68.0 -94.5
v -152.8 58.0 -94.5
v -162.8 34.0 -94.5
v -152.8 10.0 -94.5
v -128.8 0.0 -94.5
v -104.8 10.0 -94.5
v -128.8 34.0 -83.5
v -128.8 34.0 -105.5
