# Stunts car Lancia Delta (LANC)
mtllib cars.mtl
o lanc
usemtl CarWhite
v -200.0 0.0 -100.0
v 200.0 0.0 -100.0
v 200.0 0.0 100.0
v -200.0 0.0 100.0
v -200.0 78.0 -100.0
v 200.0 78.0 -100.0
v 200.0 78.0 100.0
v -200.0 78.0 100.0
v -85.0 42.9 -69.7
v 85.0 42.9 -69.7
v 85.0 42.9 69.7
v -85.0 42.9 69.7
v -85.0 85.8 -69.7
v 85.0 85.8 -69.7
v 85.0 85.8 69.7
v -85.0 85.8 69.7
f 1 2 3 4
f 5 6 7 8
f 1 2 6 5
f 2 3 7 6
f 3 4 8 7
f 4 1 5 8
f 9 10 11 12
f 13 14 15 16
f 9 10 14 13
f 10 11 15 14
f 11 12 16 15
f 12 9 13 16
usemtl CarWheel
v 146.0 34.0 84.0
v 136.0 58.0 84.0
v 112.0 68.0 84.0
v 88.0 58.0 84.0
v 78.0 34.0 84.0
v 88.0 10.0 84.0
v 112.0 0.0 84.0
v 136.0 10.0 84.0
v 112.0 34.0 95.0
v 112.0 34.0 73.0
v 146.0 34.0 -84.0
v 136.0 58.0 -84.0
v 112.0 68.0 -84.0
v 88.0 58.0 -84.0
v 78.0 34.0 -84.0
v 88.0 10.0 -84.0
v 112.0 0.0 -84.0
v 136.0 10.0 -84.0
v 112.0 34.0 -73.0
v 112.0 34.0 -95.0
v -78.0 34.0 84.0
v -88.0 58.0 84.0
v -112.0 68.0 84.0
v -136.0 58.0 84.0
v -146.0 34.0 84.0
v -136.0 10.0 84.0
v -112.0 0.0 84.0
v -88.0 10.0 84.0
v -112.0 34.0 95.0
v -112.0 34.0 73.0
v -78.0 34.0 -84.0
v -88.0 58.0 -84.0
v -112.0 68.0 -84.0
v -136.0 58.0 -84.0
v -146.0 34.0 -84.0
v -136.0 10.0 -84.0
v -112.0 0.0 -84.0
v -88.0 10.0 -84.0
v -112.0 34.0 -73.0
v -112.0 34.0 -95.0
