# Stunts car Porsche 962 (LM02)
mtllib cars.mtl
o lm02
usemtl CarWhite
v -235.0 0.0 -115.0
v 235.0 0.0 -115.0
v 235.0 0.0 115.0
v -235.0 0.0 115.0
v -235.0 58.0 -115.0
v 235.0 58.0 -115.0
v 235.0 58.0 115.0
v -235.0 58.0 115.0
v -43.9 31.9 -80.2
v 43.9 31.9 -80.2
v 43.9 31.9 80.2
v -43.9 31.9 80.2
v -43.9 63.8 -80.2
v 43.9 63.8 -80.2
v 43.9 63.8 80.2
v -43.9 63.8 80.2
f 1 2 3 4
f 5 6 7 8
f 1 2 6 5
f 2 3 7 6
f 3 4 8 7
f 4 1 5 8
f 9 10 11 12
f 13 14 15 16
f 9 10 14 13
f 10 11 15 14
f 11 12 16 15
f 12 9 13 16
usemtl CarWheel
v 169.6 38.0 96.6
v 158.5 64.9 96.6
v 131.6 76.0 96.6
v 104.7 64.9 96.6
v 93.6 38.0 96.6
v 104.7 11.1 96.6
v 131.6 0.0 96.6
v 158.5 11.1 96.6
v 131.6 38.0 107.6
v 131.6 38.0 85.6
v 169.6 38.0 -96.6
v 158.5 64.9 -96.6
v 131.6 76.0 -96.6
v 104.7 64.9 -96.6
v 93.6 38.0 -96.6
v 104.7 11.1 -96.6
v 131.6 0.0 -96.6
v 158.5 11.1 -96.6
v 131.6 38.0 -85.6
v 131.6 38.0 -107.6
v -93.6 38.0 96.6
v -104.7 64.9 96.6
v -131.6 76.0 96.6
v -158.5 64.9 96.6
v -169.6 38.0 96.6
v -158.5 11.1 96.6
v -131.6 0.0 96.6
v -104.7 11.1 96.6
v -131.6 38.0 107.6
v -131.6 38.0 85.6
v -93.6 38.0 -96.6
v -104.7 64.9 -96.6
v -131.6 76.0 -96.6
v -158.5 64.9 -96.6
v -169.6 38.0 -96.6
v -158.5 11.1 -96.6
v -131.6 0.0 -96.6
v -104.7 11.1 -96.6
v -131.6 38.0 -85.6
v -131.6 38.0 -107.6
