# Stunts car Porsche Carrera 4 (P962)
mtllib cars.mtl
o p962
usemtl CarSilver
v -215.0 0.0 -107.5
v 215.0 0.0 -107.5
v 215.0 0.0 107.5
v -215.0 0.0 107.5
v -215.0 72.0 -107.5
v 215.0 72.0 -107.5
v 215.0 72.0 107.5
v -215.0 72.0 107.5
v -73.1 39.6 -74.9
v 73.1 39.6 -74.9
v 73.1 39.6 74.9
v -73.1 39.6 74.9
v -73.1 79.2 -74.9
v 73.1 79.2 -74.9
v 73.1 79.2 74.9
v -73.1 79.2 74.9
f 1 2 3 4
f 5 6 7 8
f 1 2 6 5
f 2 3 7 6
f 3 4 8 7
f 4 1 5 8
f 9 10 11 12
f 13 14 15 16
f 9 10 14 13
f 10 11 15 14
f 11 12 16 15
f 12 9 13 16
usemtl CarWheel
v 154.4 34.0 90.3
v 144.4 58.0 90.3
v 120.4 68.0 90.3
v 96.4 58.0 90.3
v 86.4 34.0 90.3
v 96.4 10.0 90.3
v 120.4 0.0 90.3
v 144.4 10.0 90.3
v 120.4 34.0 101.3
v 120.4 34.0 79.3
v 154.4 34.0 -90.3
v 144.4 58.0 -90.3
v 120.4 68.0 -90.3
v 96.4 58.0 -90.3
v 86.4 34.0 -90.3
v 96.4 10.0 -90.3
v 120.4 0.0 -90.3
v 144.4 10.0 -90.3
v 120.4 34.0 -79.3
v 120.4 34.0 -101.3
v -86.4 34.0 90.3
v -96.4 58.0 90.3
v -120.4 68.0 90.3
v -144.4 58.0 90.3
v -154.4 34.0 90.3
v -144.4 10.0 90.3
v -120.4 0.0 90.3
v -96.4 10.0 90.3
v -120.4 34.0 101.3
v -120.4 34.0 79.3
v -86.4 34.0 -90.3
v -96.4 58.0 -90.3
v -120.4 68.0 -90.3
v -144.4 58.0 -90.3
v -154.4 34.0 -90.3
v -144.4 10.0 -90.3
v -120.4 0.0 -90.3
v -96.4 10.0 -90.3
v -120.4 34.0 -79.3
v -120.4 34.0 -101.3
