# Stunts car Porsche 924 (PC04)
mtllib cars.mtl
o pc04
usemtl CarRed
v -210.0 0.0 -102.5
v 210.0 0.0 -102.5
v 210.0 0.0 102.5
v -210.0 0.0 102.5
v -210.0 74.0 -102.5
v 210.0 74.0 -102.5
v 210.0 74.0 102.5
v -210.0 74.0 102.5
v -80.3 40.7 -71.4
v 80.3 40.7 -71.4
v 80.3 40.7 71.4
v -80.3 40.7 71.4
v -80.3 81.4 -71.4
v 80.3 81.4 -71.4
v 80.3 81.4 71.4
v -80.3 81.4 71.4
f 1 2 3 4
f 5 6 7 8
f 1 2 6 5
f 2 3 7 6
f 3 4 8 7
f 4 1 5 8
f 9 10 11 12
f 13 14 15 16
f 9 10 14 13
f 10 11 15 14
f 11 12 16 15
f 12 9 13 16
usemtl CarWheel
v 117.6 0.0 75.1
v 117.6 0.0 97.1
v 117.6 68.0 97.1
v 117.6 68.0 75.1
v 117.6 0.0 75.1
v 117.6 0.0 97.1
v 117.6 68.0 97.1
v 117.6 68.0 75.1
f 17 18 19 20
f 21 22 23 24
v 117.6 0.0 -97.1
v 117.6 0.0 -75.1
v 117.6 68.0 -75.1
v 117.6 68.0 -97.1
v 117.6 0.0 -97.1
v 117.6 0.0 -75.1
v 117.6 68.0 -75.1
v 117.6 68.0 -97.1
f 25 26 27 28
f 29 30 31 32
v -117.6 0.0 75.1
v -117.6 0.0 97.1
v -117.6 68.0 97.1
v -117.6 68.0 75.1
v -117.6 0.0 75.1
v -117.6 0.0 97.1
v -117.6 68.0 97.1
v -117.6 68.0 75.1
f 33 34 35 36
f 37 38 39 40
v -117.6 0.0 -97.1
v -117.6 0.0 -75.1
v -117.6 68.0 -75.1
v -117.6 68.0 -97.1
v -117.6 0.0 -97.1
v -117.6 0.0 -75.1
v -117.6 68.0 -75.1
v -117.6 68.0 -97.1
f 41 42 43 44
f 45 46 47 48
