# Stunts car Porsche 962 IMSA (PMIN)
mtllib cars.mtl
o pmin
usemtl CarYellow
v -237.5 0.0 -116.0
v 237.5 0.0 -116.0
v 237.5 0.0 116.0
v -237.5 0.0 116.0
v -237.5 56.0 -116.0
v 237.5 56.0 -116.0
v 237.5 56.0 116.0
v -237.5 56.0 116.0
v -40.4 30.8 -80.9
v 40.4 30.8 -80.9
v 40.4 30.8 80.9
v -40.4 30.8 80.9
v -40.4 61.6 -80.9
v 40.4 61.6 -80.9
v 40.4 61.6 80.9
v -40.4 61.6 80.9
f 1 2 3 4
f 5 6 7 8
f 1 2 6 5
f 2 3 7 6
f 3 4 8 7
f 4 1 5 8
f 9 10 11 12
f 13 14 15 16
f 9 10 14 13
f 10 11 15 14
f 11 12 16 15
f 12 9 13 16
usemtl CarWheel
v 171.0 38.0 97.4
v 159.9 64.9 97.4
v 133.0 76.0 97.4
v 106.1 64.9 97.4
v 95.0 38.0 97.4
v 106.1 11.1 97.4
v 133.0 0.0 97.4
v 159.9 11.1 97.4
v 133.0 38.0 108.4
v 133.0 38.0 86.4
v 171.0 38.0 -97.4
v 159.9 64.9 -97.4
v 133.0 76.0 -97.4
v 106.1 64.9 -97.4
v 95.0 38.0 -97.4
v 106.1 11.1 -97.4
v 133.0 0.0 -97.4
v 159.9 11.1 -97.4
v 133.0 38.0 -86.4
v 133.0 38.0 -108.4
v -95.0 38.0 97.4
v -106.1 64.9 97.4
v -133.0 76.0 97.4
v -159.9 64.9 97.4
v -171.0 38.0 97.4
v -159.9 11.1 97.4
v -133.0 0.0 97.4
v -106.1 11.1 97.4
v -133.0 38.0 108.4
v -133.0 38.0 86.4
v -95.0 38.0 -97.4
v -106.1 64.9 -97.4
v -133.0 76.0 -97.4
v -159.9 64.9 -97.4
v -171.0 38.0 -97.4
v -159.9 11.1 -97.4
v -133.0 0.0 -97.4
v -106.1 11.1 -97.4
v -133.0 38.0 -86.4
v -133.0 38.0 -108.4
