# Stunts car Corvette ZR1 (VETT)
mtllib cars.mtl
o vett
usemtl CarRed
v -220.0 0.0 -110.0
v 220.0 0.0 -110.0
v 220.0 0.0 110.0
v -220.0 0.0 110.0
v -220.0 68.0 -110.0
v 220.0 68.0 -110.0
v 220.0 68.0 110.0
v -220.0 68.0 110.0
v -78.5 37.4 -76.7
v 78.5 37.4 -76.7
v 78.5 37.4 76.7
v -78.5 37.4 76.7
v -78.5 74.8 -76.7
v 78.5 74.8 -76.7
v 78.5 74.8 76.7
v -78.5 74.8 76.7
f 1 2 3 4
f 5 6 7 8
f 1 2 6 5
f 2 3 7 6
f 3 4 8 7
f 4 1 5 8
f 9 10 11 12
f 13 14 15 16
f 9 10 14 13
f 10 11 15 14
f 11 12 16 15
f 12 9 13 16
usemtl CarWheel
v 157.2 34.0 92.4
v 147.2 58.0 92.4
v 123.2 68.0 92.4
v 99.2 58.0 92.4
v 89.2 34.0 92.4
v 99.2 10.0 92.4
v 123.2 0.0 92.4
v 147.2 10.0 92.4
v 123.2 34.0 103.4
v 123.2 34.0 81.4
v 157.2 34.0 -92.4
v 147.2 58.0 -92.4
v 123.2 68.0 -92.4
v 99.2 58.0 -92.4
v 89.2 34.0 -92.4
v 99.2 10.0 -92.4
v 123.2 0.0 -92.4
v 147.2 10.0 -92.4
v 123.2 34.0 -81.4
v 123.2 34.0 -103.4
v -89.2 34.0 92.4
v -99.2 58.0 92.4
v -123.2 68.0 92.4
v -147.2 58.0 92.4
v -157.2 34.0 92.4
v -147.2 10.0 92.4
v -123.2 0.0 92.4
v -99.2 10.0 92.4
v -123.2 34.0 103.4
v -123.2 34.0 81.4
v -89.2 34.0 -92.4
v -99.2 58.0 -92.4
v -123.2 68.0 -92.4
v -147.2 58.0 -92.4
v -157.2 34.0 -92.4
v -147.2 10.0 -92.4
v -123.2 0.0 -92.4
v -99.2 10.0 -92.4
v -123.2 34.0 -81.4
v -123.2 34.0 -103.4
